<svg width="32" height="25" viewBox="0 0 32 25" fill="none" xmlns="https://www.w3.org/2000/svg">
<path d="M18.7656 4.19746V9.13908L19.851 10.0056V24.5H31.7196L23.7372 23.5547V0.657753L18.7656 4.19746Z" fill="white"/>
<path d="M16.1232 7.0647L12.3945 10.0056V12.9851L13.6549 13.9443V24.5H16.1232V7.0647Z" fill="white"/>
<path d="M7.98243 13.9441V23.607L0 24.4999V24.4998L10.8183 24.5V24.4998L10.8183 11.7909L7.98243 13.9441Z" fill="white"/>
<path d="M13.1789 4.27879L12.6588 3.99365L12.1403 4.28207L12.2378 3.67434L11.8164 3.24549L12.3968 3.15503L12.6548 2.60156L12.9161 3.15339L13.4969 3.24018L13.078 3.67168L13.1789 4.27879Z" fill="white"/>
<path d="M10.9211 6.85301L10.401 6.56787L9.88251 6.85629L9.97995 6.24856L9.55859 5.81971L10.1389 5.72925L10.397 5.17578L10.6582 5.72761L11.2391 5.8144L10.8202 6.2459L10.9211 6.85301Z" fill="white"/>
<path d="M9.34495 10.3179L8.82483 10.0327L8.30634 10.3211L8.40378 9.7134L7.98242 9.28455L8.56277 9.1941L8.82084 8.64062L9.08208 9.19245L9.66293 9.27924L9.24404 9.71075L9.34495 10.3179Z" fill="white"/>
<path d="M16.3821 2.75535L15.8619 2.47021L15.3435 2.75864L15.4409 2.1509L15.0195 1.72205L15.5999 1.6316L15.858 1.07812L16.1192 1.62995L16.7 1.71674L16.2811 2.14825L16.3821 2.75535Z" fill="white"/>
<path d="M19.9524 2.17723L19.4322 1.89208L18.9138 2.18051L19.0112 1.57278L18.5898 1.14392L19.1702 1.05347L19.4283 0.5L19.6895 1.05183L20.2704 1.13862L19.8515 1.57012L19.9524 2.17723Z" fill="white"/>
</svg>
