<svg width="160" height="155" viewBox="0 0 160 155" fill="none" xmlns="http://www.w3.org/2000/svg">
<rect width="160" height="155" rx="77.5" fill="#A1A1A1"/>
<path d="M89.6992 50.9616V66.7919L93.2368 69.5677V116H131.921L105.903 112.972V39.6222L89.6992 50.9616Z" fill="white"/>
<path d="M81.071 60.1467L68.918 69.5677V79.1125L73.026 82.1852V116H81.071V60.1467Z" fill="white"/>
<path d="M54.5529 82.1845V113.139L28.5352 116V115.999L63.796 116V115.999L63.796 75.287L54.5529 82.1845Z" fill="white"/>
<path d="M71.4801 51.2186L69.7848 50.3052L68.0948 51.2292L68.4124 49.2823L67.0391 47.9085L68.9306 47.6187L69.7718 45.8457L70.6233 47.6135L72.5165 47.8915L71.1511 49.2738L71.4801 51.2186Z" fill="white"/>
<path d="M64.1207 59.4618L62.4254 58.5484L60.7355 59.4723L61.0531 57.5255L59.6797 56.1517L61.5713 55.8619L62.4124 54.0889L63.2639 55.8566L65.1571 56.1346L63.7918 57.517L64.1207 59.4618Z" fill="white"/>
<path d="M59.0035 70.5653L57.3082 69.6519L55.6183 70.5758L55.9359 68.629L54.5625 67.2552L56.4541 66.9654L57.2952 65.1924L58.1467 66.9601L60.0399 67.2382L58.6746 68.6205L59.0035 70.5653Z" fill="white"/>
<path d="M81.941 46.3407L80.2457 45.4273L78.5558 46.3512L78.8734 44.4044L77.5 43.0306L79.3916 42.7408L80.2327 40.9678L81.0842 42.7355L82.9774 43.0136L81.6121 44.3959L81.941 46.3407Z" fill="white"/>
<path d="M93.5816 44.4892L91.8863 43.5757L90.1964 44.4997L90.514 42.5528L89.1406 41.179L91.0322 40.8892L91.8733 39.1162L92.7248 40.884L94.618 41.162L93.2527 42.5443L93.5816 44.4892Z" fill="white"/>
</svg>
