<svg width="306" height="232" viewBox="0 0 306 232" fill="none" xmlns="http://www.w3.org/2000/svg">
<g opacity="0.1">
<path d="M181.033 35.7421V83.5111L191.504 91.8874V232H306L228.994 222.862V1.52495L181.033 35.7421Z" fill="#BB4D00"/>
<path d="M155.54 63.4588L119.57 91.8874V120.689L131.729 129.961V232H155.54V63.4588Z" fill="#BB4D00"/>
<path d="M77.0065 129.96V223.368L0 231.999V231.998L104.364 232V231.998L104.364 109.146L77.0065 129.96Z" fill="#BB4D00"/>
<path d="M127.137 36.5296L122.119 33.7732L117.117 36.5613L118.057 30.6866L113.992 26.541L119.591 25.6666L122.08 20.3164L124.601 25.6507L130.204 26.4897L126.163 30.6609L127.137 36.5296Z" fill="#BB4D00"/>
<path d="M105.357 61.4124L100.34 58.656L95.3377 61.4442L96.2778 55.5694L92.2129 51.4238L97.8115 50.5494L100.301 45.1992L102.821 50.5336L108.425 51.3725L104.384 55.5437L105.357 61.4124Z" fill="#BB4D00"/>
<path d="M90.1522 94.9046L85.1345 92.1482L80.1327 94.9363L81.0727 89.0616L77.0078 84.916L82.6064 84.0416L85.096 78.6914L87.6162 84.0257L93.2197 84.8647L89.1786 89.0359L90.1522 94.9046Z" fill="#BB4D00"/>
<path d="M158.039 21.8031L153.021 19.0467L148.019 21.8348L148.959 15.96L144.895 11.8144L150.493 10.9401L152.983 5.58984L155.503 10.9242L161.106 11.7631L157.065 15.9343L158.039 21.8031Z" fill="#BB4D00"/>
<path d="M192.482 16.2132L187.465 13.4568L182.463 16.2449L183.403 10.3702L179.338 6.2246L184.937 5.35021L187.426 0L189.946 5.33434L195.55 6.17328L191.509 10.3445L192.482 16.2132Z" fill="#BB4D00"/>
</g>
</svg>
